Coordinates
version=1
nRows=27
nColumns=12
inDegrees=yes

Units are S.I. units (second, meters, Newtons, ...)
Angles are in degrees

endheader
time	SC_y	SC_z	SC_x	AC_y	AC_z	AC_x	GH_y	GH_z	GH_yy	EL_x	PS_y
       0.0               -52.3          9.983          47.95          33.13         -7.145          2.254          120.4           68.4          14.96          133.4          44.47
   0.02749               -52.3          9.981          47.95          33.13         -7.146          2.251          120.4          68.39          14.97          133.4          44.48
   0.05499               -52.3          9.979          47.95          33.13         -7.146          2.248          120.4          68.38          14.98          133.4          44.49
   0.08248              -52.29          9.977          47.95          33.13         -7.146          2.245          120.4          68.37          14.99          133.4           44.5
      0.11              -52.29          9.975          47.95          33.13         -7.146          2.242          120.4          68.37           15.0          133.4          44.51
    0.1375              -52.29          9.972          47.95          33.13         -7.147          2.238          120.4          68.36          15.01          133.3          44.52
     0.165              -52.28          9.969          47.95          33.14         -7.147          2.235          120.4          68.35          15.02          133.3          44.54
    0.1925              -52.28          9.966          47.96          33.14         -7.147          2.231          120.4          68.34          15.04          133.3          44.55
      0.22              -52.28          9.963          47.96          33.14         -7.148          2.226          120.4          68.33          15.05          133.3          44.57
    0.2475              -52.27           9.96          47.96          33.14         -7.148          2.222          120.5          68.32          15.07          133.3          44.58
    0.2749              -52.27          9.956          47.96          33.14         -7.149          2.217          120.5           68.3          15.09          133.3           44.6
    0.3024              -52.26          9.952          47.96          33.14         -7.149          2.212          120.5          68.29          15.11          133.2          44.62
    0.3299              -52.26          9.948          47.97          33.15          -7.15          2.206          120.5          68.28          15.13          133.2          44.64
    0.3574              -52.25          9.943          47.97          33.15          -7.15            2.2          120.5          68.26          15.15          133.2          44.66
    0.3849              -52.25          9.938          47.97          33.15         -7.151          2.193          120.5          68.24          15.17          133.2          44.69
    0.4124              -52.24          9.933          47.98          33.15         -7.151          2.186          120.5          68.23           15.2          133.2          44.71
    0.4399              -52.24          9.927          47.98          33.16         -7.152          2.178          120.6          68.21          15.22          133.1          44.74
    0.4674              -52.23          9.921          47.98          33.16         -7.153          2.169          120.6          68.19          15.25          133.1          44.77
    0.4949              -52.22          9.914          47.99          33.16         -7.154           2.16          120.6          68.16          15.29          133.1          44.81
    0.5224              -52.21          9.906          47.99          33.17         -7.155           2.15          120.6          68.14          15.32          133.0          44.84
    0.5499               -52.2          9.898           48.0          33.17         -7.156          2.139          120.7          68.11          15.36          133.0          44.88
    0.5774              -52.19          9.889           48.0          33.18         -7.157          2.126          120.7          68.08           15.4          132.9          44.93
    0.6049              -52.18          9.879          48.01          33.18         -7.158          2.113          120.7          68.04          15.45          132.9          44.98
    0.6324              -52.16          9.867          48.01          33.19         -7.159          2.098          120.8          68.01           15.5          132.8          45.03
    0.6599              -52.15          9.855          48.02          33.19         -7.161          2.081          120.8          67.97          15.56          132.8          45.09
    0.6874              -52.13          9.841          48.03           33.2         -7.162          2.062          120.9          67.92          15.63          132.7          45.16
    0.7149              -52.12          9.825          48.04          33.21         -7.164          2.041          120.9          67.87           15.7          132.6          45.24
